<svg xmlns="http://www.w3.org/2000/svg" viewBox="0 0 48 48"><title>23-Education</title><g id="_23-Education" data-name="23-Education"><path d="M47,48H7a3,3,0,0,1-3-3V39a3,3,0,0,1,.171-1H1a1,1,0,0,1-1-1V29a3,3,0,0,1,3-3H41a3,3,0,0,1,3,3v6a3,3,0,0,1-.171,1H45a3,3,0,0,1,3,3v8A1,1,0,0,1,47,48ZM7,38a1,1,0,0,0-1,1v6a1,1,0,0,0,1,1H46V39a1,1,0,0,0-1-1H41a1,1,0,0,1,0-2,1,1,0,0,0,1-1V29a1,1,0,0,0-1-1H3a1,1,0,0,0-1,1v7H7a1,1,0,0,1,0,2Z"/><path d="M32,34H30V32H6v2H4V31a1,1,0,0,1,1-1H31a1,1,0,0,1,1,1Z"/><rect x="34" y="30" width="2" height="4"/><rect x="38" y="30" width="2" height="4"/><path d="M43,44H13a1,1,0,0,1-1-1V40h2v2H42V40h2v3A1,1,0,0,1,43,44Z"/><rect x="8" y="40" width="2" height="4"/><path d="M25,11H23V5a2.916,2.916,0,0,1,3-3h3V4H26a.919.919,0,0,0-1,1.012Z"/><rect x="7" y="36" width="25" height="2"/><rect x="37" y="36" width="4" height="2"/><path d="M11.912,24.457A7,7,0,0,1,11,21V15a7.008,7.008,0,0,1,7-7h2a6.972,6.972,0,0,1,4,1.262A6.972,6.972,0,0,1,28,8h2a7.008,7.008,0,0,1,7,7v6a7.006,7.006,0,0,1-.905,3.445l-1.741-.986A4.989,4.989,0,0,0,35,21V15a5.006,5.006,0,0,0-5-5H28a4.99,4.99,0,0,0-3.333,1.281,1,1,0,0,1-1.334,0A4.99,4.99,0,0,0,20,10H18a5.006,5.006,0,0,0-5,5v6a5.009,5.009,0,0,0,.65,2.469Z"/></g></svg>